<svg width="60" height="40" viewBox="0 0 60 40" fill="none" xmlns="http://www.w3.org/2000/svg">
<path d="M45.9967 21.6883C46.0233 23.1848 45.9404 23.2374 44.8742 22.9055C42.5728 22.1877 40.1835 21.8821 37.8174 21.478C37.6267 21.4452 37.3962 21.3778 37.2702 21.5618C37.0994 21.8099 37.3498 21.9643 37.4841 22.1236C38.4607 23.2834 39.0974 24.586 39.1389 26.117C39.1936 28.0816 38.1208 29.5584 36.1891 30.0233C35.3385 30.227 35.0367 30.5916 35.1064 31.4458C35.1827 32.3822 35.1263 33.3284 35.1263 34.2696C35.1263 34.7345 34.9654 34.9973 34.4233 34.9365C30.0393 34.4388 25.7548 33.583 21.7986 31.5345C18.5918 29.8738 16.0035 27.6053 14.5212 24.2443C13.8712 22.7708 13.7601 21.3877 14.5859 19.8896C16.4661 16.4777 18.5852 13.2909 21.845 10.9944C23.3688 9.92177 25.0152 9.12671 26.8474 8.74561C27.4062 8.62898 27.6533 8.37601 27.6682 7.79778C27.7014 6.57234 27.9351 5.37811 28.3497 4.22002C28.3961 4.09025 28.4359 3.95555 28.4956 3.8307C28.9184 2.9223 29.4357 2.03197 30.5649 2.00076C31.6261 1.97119 32.1367 2.81388 32.6159 3.62044C32.9227 4.13789 32.9558 4.96416 33.5511 5.12514C34.2094 5.30419 34.4929 4.47135 34.9704 4.12146C36.7479 2.82045 38.4789 3.34447 39.1737 5.43068C39.3395 5.9317 39.502 6.43271 39.492 6.96987C39.4854 7.4019 39.6595 7.56781 40.1155 7.46596C40.5764 7.36247 41.0523 7.27705 41.5232 7.26391C42.9027 7.22449 43.7583 8.20024 43.624 9.55874C43.4383 11.4429 42.6524 13.1332 41.8963 14.8268C41.6111 15.4625 41.7056 15.6909 42.3572 15.9931C44.9405 17.189 45.811 19.4477 45.9967 21.6867V21.6883ZM32.7403 33.1838C33.2626 33.2577 33.5577 33.0951 33.5411 32.5234C33.5246 31.9419 33.5362 31.3604 33.5428 30.7789C33.5461 30.4487 33.4383 30.1908 33.1366 30.0167C32.2561 29.5091 32.0422 28.6796 32.019 27.7498C31.9842 26.3437 32.3191 25.0082 32.7585 23.6858C32.8763 23.3343 33.0835 22.8891 32.3788 22.876C31.2298 22.8546 30.1039 22.6493 28.993 22.3815C24.8312 21.3795 22.5347 18.3668 25.322 14.1057C25.9769 13.1053 26.5423 12.0573 26.9917 10.9484C27.063 10.7727 27.1923 10.5871 27.0282 10.408C26.8657 10.2306 26.6684 10.3292 26.4843 10.3949C25.2457 10.8384 24.0403 11.3509 22.9576 12.1065C19.5336 14.4934 17.3449 17.8329 15.584 21.501C15.4298 21.8214 15.4845 22.1433 15.5757 22.4735C16.04 24.1655 16.8939 25.639 18.1126 26.9038C22.097 31.0385 27.3581 32.2606 32.7419 33.1838H32.7403ZM32.4087 21.3696C32.994 21.3203 33.6058 21.5372 33.9209 20.7717C34.7897 18.6526 36.1526 16.9525 38.2999 15.9685C38.7409 15.7664 38.8387 15.4363 38.6613 15.0124C38.3712 14.3209 38.0313 13.6654 37.5338 13.0839C35.4529 10.6478 32.6309 10.0877 29.6247 9.9727C29.25 9.95791 28.9864 10.0959 28.8488 10.4639C28.1573 12.3119 27.1674 14.0104 26.2074 15.7303C25.1098 17.6966 25.7415 19.4148 27.8075 20.3528C29.2765 21.0197 30.8385 21.2809 32.4087 21.368V21.3696ZM29.2616 7.2442C29.2135 8.3448 29.2649 8.36944 30.1719 8.43843C34.3221 8.75054 37.9832 9.91027 39.9248 14.0186C40.1238 14.4391 40.3708 14.426 40.5499 14.0104C41.1518 12.6108 41.7918 11.2211 42.0571 9.70822C42.1682 9.07251 41.8565 8.76368 41.2032 8.84253C40.787 8.89345 40.3791 8.9953 39.9629 9.04787C38.6962 9.20721 37.9069 8.53863 37.9036 7.29512C37.9036 6.64791 37.8472 6.02204 37.4841 5.46189C37.179 4.99208 36.791 4.85245 36.2737 5.14157C35.8028 5.4044 35.448 5.78385 35.0898 6.1781C34.0435 7.32962 32.7851 7.18999 32.0107 5.8512C31.7189 5.3469 31.4801 4.81303 31.1817 4.31365C31.0358 4.06725 30.9512 3.68122 30.5715 3.7075C30.1752 3.73543 30.0691 4.11325 29.9398 4.41057C29.5136 5.38797 29.3578 6.42614 29.2616 7.2442ZM40.0591 17.0806C38.6232 17.1709 37.4824 18.1697 36.4859 19.3639C36.1958 19.7122 36.5506 19.8255 36.8557 19.8616C37.4642 19.9356 38.0744 20.0078 38.6829 20.0834C40.3194 20.2871 41.9361 20.5959 43.5394 20.9787C43.9755 21.0822 44.3569 21.0674 44.2143 20.43C43.8031 18.5738 42.1632 17.1693 40.0591 17.0789V17.0806ZM33.5743 27.2488C33.571 27.8648 33.4815 28.5301 34.269 28.7666C35.6353 29.1773 37.5173 27.8632 37.5653 26.4587C37.6217 24.7766 36.7164 23.5232 35.6303 22.3635C35.3501 22.0645 35.0749 22.0941 34.9157 22.4768C34.2724 24.0127 33.6622 25.5601 33.576 27.2488H33.5743Z" fill="white"/>
<path d="M34.6953 15.1582C34.6986 15.9565 34.0089 16.6218 33.1947 16.6087C32.3806 16.5939 31.7505 15.9845 31.7423 15.2025C31.734 14.4403 32.4768 13.7093 33.2478 13.7208C34.0138 13.7323 34.692 14.4075 34.6953 15.1598V15.1582Z" fill="white"/>
</svg>
