<svg width="60" height="40" viewBox="0 0 60 40" fill="none" xmlns="http://www.w3.org/2000/svg">
<path d="M36.5469 29.5838C34.9941 29.5838 33.4413 29.6186 31.8885 29.5768C28.0776 29.4759 25.4861 31.2833 23.8829 34.6474C22.9536 36.5974 23.1586 36.5035 21.5467 35.2145C17.2113 31.7442 14.4808 27.2581 13.4005 21.8239C12.8794 19.2025 12.8933 16.5254 13.2893 13.864C13.3744 13.2883 13.694 13.0447 14.2325 13.0325C15.0384 13.0152 15.794 12.7855 16.5304 12.4916C17.2461 12.2063 17.8557 11.7923 18.3195 11.1348C18.9153 10.2911 19.6604 9.57444 20.5897 9.09608C21.0986 8.83342 21.3713 8.46986 21.5137 7.90627C22.1963 5.20484 23.8916 3.88457 26.7002 3.86544C29.7173 3.8463 32.7344 3.88283 35.7514 3.84978C36.4722 3.84108 36.6824 4.16463 36.6928 4.79084C36.7224 6.55817 36.0675 7.99498 34.6259 9.03172C34.1916 9.34309 34.0318 9.55531 34.5842 9.91886C35.8556 10.7556 36.8405 11.8914 37.5839 13.1995C39.2705 16.1654 41.7473 18.2615 44.7575 19.7244C46.3155 20.481 47.1492 21.5265 46.9773 23.3008C46.8904 24.2018 47.0989 25.1255 46.8453 26.0144C46.22 28.2026 44.4031 29.556 42.0826 29.5803C41.1446 29.5907 40.2084 29.5803 39.2705 29.5803C38.362 29.5803 37.4536 29.5803 36.5452 29.5803L36.5469 29.5838ZM36.3854 27.9678C38.2908 27.9678 40.1962 27.9904 42.0999 27.9608C43.8508 27.933 45.2386 26.6893 45.4088 25.0333C45.4557 24.5688 45.3914 24.094 45.4349 23.6278C45.5373 22.5162 45.2629 21.6691 44.0818 21.2847C43.6458 21.142 43.2394 20.8672 42.8607 20.5958C42.2823 20.1818 41.7404 20.2427 41.1325 20.5297C39.8853 21.1194 39.0863 22.0605 38.7146 23.3843C38.5323 24.0296 38.0303 24.054 37.5144 23.9183C36.9325 23.7669 37.0871 23.3321 37.1879 22.9198C37.5509 21.4151 38.4159 20.2706 39.6995 19.4443C40.2518 19.0895 40.2814 18.8285 39.7551 18.3971C38.3099 17.2143 37.2226 15.7322 36.2412 14.1493C34.6676 11.6114 32.5832 9.87885 29.3734 10.0841C28.7984 10.1206 28.3937 9.95539 28.4042 9.26829C28.4146 8.58641 28.8314 8.45421 29.396 8.45073C30.2453 8.44551 31.1034 8.49074 31.9406 8.38115C33.2311 8.21416 34.2663 7.59664 34.7926 6.33029C34.9802 5.8815 34.9628 5.5023 34.3219 5.50404C31.6557 5.50925 28.986 5.43967 26.3233 5.54404C24.3119 5.62232 23.143 6.81213 23.0283 8.74644C22.9797 9.5727 22.6879 10.0041 21.9149 10.2998C20.7251 10.7556 19.841 11.6218 19.2991 12.7838C18.9465 13.5405 19.1463 13.9075 19.9626 13.9945C21.4512 14.1528 22.9467 14.2624 24.3623 13.5718C25.0275 13.2465 25.2846 13.5457 25.2829 14.2102C25.2829 15.3548 25.2811 16.4994 25.2898 17.6439C25.2933 18.1727 25.071 18.505 24.5812 18.7398C23.3775 19.3156 22.8164 20.3175 22.8129 21.6413C22.8095 23.0311 23.4626 24.0435 24.6298 24.7463C24.8799 24.8976 25.1665 24.9881 25.4149 25.1411C25.9255 25.4542 25.6945 25.9169 25.6042 26.3292C25.5243 26.6945 25.2551 26.7328 24.9181 26.6562C22.7157 26.157 20.9232 23.6173 21.1316 21.3508C21.2723 19.8235 21.8976 18.5902 23.1517 17.7135C23.8238 17.2439 23.7405 16.5689 23.6102 15.9653C23.466 15.2974 22.8737 15.7201 22.4934 15.7235C21.0534 15.7392 19.6222 15.727 18.2205 15.3339C17.8088 15.2191 17.4336 15.0921 17.3503 14.5911C17.2565 14.0328 16.9091 14.0641 16.4974 14.2345C16.2821 14.3232 16.0545 14.4485 15.8339 14.4468C15.0262 14.4398 14.8091 14.9147 14.7119 15.6122C14.4201 17.71 14.6823 19.7818 15.094 21.8187C15.992 26.2718 18.1805 30.0169 21.545 33.0697C22.2971 33.7516 22.3683 33.7603 22.9033 32.8993C24.9581 29.589 27.8744 27.8634 31.819 27.9661C33.3423 28.0061 34.8673 27.973 36.3906 27.9713L36.3854 27.9678Z" fill="white"/>
<path d="M32.8315 14.9656C32.8454 15.7971 32.1228 16.5398 31.2891 16.5503C30.464 16.5607 29.8405 15.9223 29.8057 15.0335C29.7745 14.2385 30.4571 13.5358 31.2856 13.5114C32.1176 13.487 32.8176 14.1446 32.8315 14.9656Z" fill="white"/>
<path d="M42.2871 24.463C41.6063 24.4787 40.9323 23.8942 40.9375 23.2419C40.9427 22.5131 41.4465 22.2261 42.0752 22.1634C42.737 22.0973 43.4943 22.814 43.4978 23.4437C43.4995 23.9777 42.942 24.4474 42.2871 24.463Z" fill="white"/>
</svg>
