<svg width="60" height="40" viewBox="0 0 60 40" fill="none" xmlns="http://www.w3.org/2000/svg">
<path d="M33.2097 32.883C31.6656 32.7597 29.6956 33.2078 27.822 32.5399C27.0101 32.2501 26.3196 32.2351 25.5076 32.5516C22.5076 33.7207 20.1749 32.4683 18.1034 30.3781C15.3896 27.6384 14.2631 24.1975 13.9603 20.4851C13.5726 15.7335 14.5443 11.1534 16.1034 6.68161C16.2515 6.25525 16.4844 5.94047 16.937 5.81389C19.704 5.03445 22.4793 4.37991 25.3895 4.94284C26.5009 5.15769 27.5675 5.48579 28.5475 6.04873C29.03 6.32686 29.3927 6.2769 29.8453 5.9488C31.6257 4.65971 33.2712 4.66138 35.0549 5.93547C37.0399 7.3528 39.2029 7.84911 41.5889 7.29118C42.0632 7.17959 42.5041 7.23621 42.7853 7.66924C43.0598 8.09227 42.8418 8.472 42.5873 8.83008C40.9434 11.1451 38.995 13.0038 35.98 13.2902C35.371 13.3485 35.2895 13.695 35.5973 14.1663C36.7304 15.9034 37.7121 17.7537 39.2512 19.196C40.5939 20.4552 42.0166 21.4095 44.0298 21.1763C45.5373 21.0014 46.524 22.0507 46.5356 23.5696C46.5456 24.8903 46.4791 26.2144 46.5556 27.5301C46.6122 28.5028 46.2228 29.2106 45.5723 29.8385C43.9799 31.3774 42.0049 32.1202 39.8835 32.5566C37.802 32.9846 35.6938 32.888 33.2113 32.883H33.2097ZM33.7238 31.3174C35.97 31.3641 38.2146 31.3874 40.4192 30.8311C41.7653 30.4914 43.0432 30 44.1147 29.084C44.5706 28.6943 44.9649 28.2579 44.9616 27.6017C44.9566 26.3093 44.9699 25.0169 44.9367 23.7245C44.9134 22.8101 44.3576 22.477 43.5174 22.8784C42.5041 23.3598 41.9267 24.1892 41.8003 25.3084C41.7537 25.7264 41.8036 26.1561 41.7354 26.5675C41.6322 27.1937 41.1197 27.3502 40.5956 27.3286C40.0482 27.3069 40.1913 26.8389 40.1713 26.4892C40.1014 25.2534 40.2895 24.0676 40.9617 23.015C41.2878 22.5037 41.1447 22.2955 40.6439 22.084C39.97 21.8009 39.366 21.3945 38.7986 20.9232C36.8369 19.291 35.6023 17.1059 34.2712 14.994C33.7604 14.1829 33.6989 14.1513 33.01 14.8391C32.5441 15.3038 32.1082 15.044 31.7188 14.8042C31.2546 14.516 31.5574 14.173 31.7787 13.8832C32.8353 12.4991 34.2712 11.828 35.9767 11.718C37.6406 11.6114 38.8286 10.6555 39.9517 9.56956C40.0698 9.45464 40.193 9.31141 40.0798 9.12654C39.9966 8.98997 39.8485 8.99663 39.7038 9.00329C37.6589 9.09323 35.8636 8.3804 34.188 7.28285C32.5874 6.23359 31.6157 6.35184 30.2297 7.69755C29.1997 8.69684 28.4959 9.90432 27.9402 11.1984C27.669 11.8296 27.2963 11.783 26.8021 11.5765C26.2697 11.355 26.2796 11.0002 26.5009 10.5539C26.9003 9.74943 27.2563 8.92002 27.8037 8.19886C28.1249 7.77417 28.04 7.50436 27.5808 7.27286C26.9502 6.95475 26.2846 6.74823 25.6041 6.56836C23.0234 5.88384 20.5409 6.53505 18.0534 7.1113C17.5892 7.21789 17.4095 7.60928 17.2731 8.02732C16.0152 11.8762 15.3064 15.8035 15.511 19.8722C15.714 23.9127 16.9952 27.4602 20.1749 30.1383C21.2947 31.0809 22.5609 31.6022 24.0584 31.3291C24.2946 31.2858 24.6307 31.3724 24.7106 31.0676C24.7871 30.7761 24.4643 30.6629 24.2896 30.493C22.5359 28.7809 21.288 26.7956 20.922 24.3241C20.8487 23.8344 20.7306 23.3331 21.4344 23.2199C22.1166 23.1099 22.3412 23.438 22.4461 24.1009C23.0301 27.77 26.6058 31.8121 31.0283 31.3324C31.9168 31.2358 32.8237 31.3191 33.7221 31.3191L33.7238 31.3174Z" fill="white"/>
<path d="M33.1264 18.5378C33.8402 18.5112 34.5491 19.2307 34.5657 19.9968C34.584 20.8345 34.01 21.4541 33.1913 21.4841C32.376 21.5124 31.7388 20.9245 31.6972 20.1034C31.6556 19.294 32.3178 18.5678 33.1264 18.5378Z" fill="white"/>
<path d="M44.4303 25.2254C44.3537 25.785 44.2655 26.3429 43.6 26.3179C42.9344 26.293 42.7498 25.7633 42.7581 25.1904C42.7664 24.6508 42.9661 24.1295 43.58 24.1328C44.2556 24.1378 44.3637 24.7224 44.4303 25.2254Z" fill="white"/>
</svg>
