<svg width="16" height="15" viewBox="0 0 16 15" fill="none" xmlns="http://www.w3.org/2000/svg">
<path d="M0 6.63296C0 6.50292 0 6.37288 0 6.24284C0.0109268 6.22282 0.023935 6.20383 0.0322602 6.18303C0.175089 5.8249 0.440976 5.65013 0.824976 5.65039C2.23298 5.65039 3.64124 5.65039 5.04924 5.65039C6.74341 5.65039 8.43785 5.65091 10.132 5.65091C11.8816 5.65091 13.6312 5.65143 15.3808 5.65091C15.5616 5.65091 15.6972 5.72659 15.8023 5.87172C15.8894 5.99213 15.9357 6.13127 16 6.26209V6.67171C15.9277 6.93412 15.7885 7.1375 15.5145 7.22177C15.4113 7.2535 15.3051 7.26494 15.1971 7.26468C15.0023 7.2639 14.8072 7.26468 14.6123 7.26364C14.5587 7.26338 14.5181 7.273 14.5043 7.33568C14.4393 7.63373 14.3714 7.93099 14.3058 8.22878C14.1247 9.04958 13.9452 9.8709 13.7626 10.6914C13.6479 11.2079 13.5274 11.7232 13.4122 12.2394C13.2602 12.9203 13.1078 13.6012 12.9623 14.2836C12.8887 14.6292 12.7261 14.8922 12.3705 15.0006H3.62927C3.49268 14.9533 3.3665 14.8922 3.27076 14.7767C3.13366 14.6113 3.06628 14.4186 3.02179 14.2126C2.90888 13.6893 2.79233 13.1666 2.67655 12.6438C2.51525 11.9148 2.35395 11.1858 2.19135 10.4571C2.05424 9.84255 1.9148 9.22851 1.77717 8.61395C1.68299 8.19263 1.58881 7.77157 1.49854 7.34946C1.48345 7.27846 1.44546 7.26234 1.3825 7.26286C1.18764 7.26468 0.99252 7.26728 0.797659 7.26286C0.56065 7.25766 0.36735 7.15675 0.20839 6.98224C0.114732 6.87951 0.0569756 6.75701 0 6.63296ZM11.8023 10.2631H11.8067C11.8067 9.6683 11.807 9.07351 11.8067 8.47871C11.8067 8.32267 11.7999 8.16662 11.8028 8.01058C11.8137 7.41422 11.271 7.17495 10.8113 7.29849C10.4611 7.39264 10.253 7.69146 10.252 8.09614C10.2499 8.9739 10.2504 9.85139 10.2499 10.7291C10.2499 11.2948 10.2486 11.8605 10.2507 12.4259C10.2514 12.602 10.2629 12.7791 10.3506 12.9374C10.5051 13.2165 10.8701 13.351 11.2268 13.2664C11.5445 13.191 11.7979 12.9018 11.8002 12.584C11.8059 11.8105 11.802 11.0368 11.802 10.2634L11.8023 10.2631ZM4.19668 10.3195H4.19304C4.19304 11.0085 4.19226 11.6971 4.19382 12.3861C4.19408 12.5091 4.1881 12.6329 4.21567 12.7549C4.32468 13.2355 4.91707 13.4415 5.34478 13.171C5.61743 12.9986 5.74959 12.7484 5.74985 12.428C5.75063 11.648 5.75037 10.868 5.74985 10.0883C5.74985 9.42227 5.75167 8.75595 5.74699 8.0899C5.74543 7.87716 5.71941 7.66728 5.56228 7.50005C5.36247 7.28757 5.02322 7.20954 4.74537 7.31513C4.42641 7.43633 4.19824 7.72787 4.19746 8.02878C4.19512 8.79236 4.19668 9.55595 4.19668 10.3195ZM7.27883 10.3076C7.27883 11.0548 7.27883 11.802 7.27883 12.5492C7.27883 12.6503 7.28898 12.7505 7.3254 12.8459C7.49997 13.301 8.12124 13.4376 8.51226 13.1101C8.7295 12.9283 8.82576 12.7021 8.82341 12.4183C8.81717 11.5996 8.82159 10.7809 8.82107 9.96244C8.82081 9.33566 8.81951 8.70888 8.81821 8.0821C8.81821 7.95518 8.81821 7.82748 8.76956 7.70759C8.6426 7.39628 8.38842 7.27872 8.07363 7.26702C7.70185 7.25324 7.26894 7.63685 7.27493 8.05635C7.28559 8.80667 7.27805 9.55725 7.27805 10.3076H7.27883Z" fill="white"/>
<path d="M6.69135 0.000260076C6.87034 0.065279 7.03867 0.145642 7.16302 0.298047C7.35867 0.537576 7.41408 0.801293 7.32693 1.10116C7.25824 1.33731 7.14403 1.55213 7.04179 1.77268C6.89584 2.08789 6.73558 2.39608 6.5878 2.71051C6.48712 2.92455 6.37915 3.13599 6.27535 3.34899C6.05733 3.79554 5.83671 4.24105 5.62026 4.68864C5.588 4.75574 5.54975 4.78721 5.47249 4.78695C4.97844 4.78461 4.48413 4.78617 3.99008 4.78591C3.86416 4.78591 3.85688 4.77525 3.91047 4.65925C4.22189 3.98722 4.53486 3.31596 4.84628 2.64419C5.10176 2.09309 5.35593 1.54147 5.61141 0.990368C5.69883 0.801813 5.78754 0.613778 5.87756 0.426264C5.98423 0.203379 6.1718 0.0775025 6.39815 0H6.69083L6.69135 0.000260076Z" fill="white"/>
<path d="M11.3632 4.88341C11.116 4.88341 10.8689 4.88159 10.6217 4.88445C10.5507 4.88523 10.5088 4.8613 10.4781 4.7955C10.2611 4.33049 10.0413 3.86677 9.82224 3.40254C9.51005 2.74143 9.19811 2.08058 8.88514 1.41998C8.86016 1.36719 8.8292 1.31725 8.8011 1.26602C8.58439 0.869924 8.79564 0.298278 9.2158 0.144053C9.56988 0.0140155 9.89092 0.120126 10.1344 0.438719C10.2364 0.572138 10.3067 0.721681 10.3766 0.871485C10.5908 1.33026 10.7999 1.79137 11.0143 2.25014C11.2739 2.80619 11.538 3.36041 11.7982 3.91619C11.9316 4.20149 12.062 4.48836 12.1921 4.77522C12.2347 4.86911 12.2261 4.88237 12.1239 4.88315C11.8702 4.88471 11.6166 4.88367 11.3629 4.88367L11.3632 4.88341Z" fill="white"/>
</svg>
